<svg width="116" height="47" viewBox="0 0 116 47" fill="none" xmlns="http://www.w3.org/2000/svg">
<mask id="path-1-inside-1_4068_44067" fill="white">
<path fill-rule="evenodd" clip-rule="evenodd" d="M0.605347 6H9.99996C13.3137 6 16 8.68629 16 12V35C16 38.3137 13.3137 41 9.99996 41H0.605347C2.6802 44.5868 6.55827 47 11 47H104C110.627 47 116 41.6274 116 35V12C116 5.37258 110.627 0 104 0H11C6.55827 0 2.6802 2.41319 0.605347 6Z"/>
</mask>
<path d="M0.605347 6L-0.260259 5.49927L-1.12838 7H0.605347V6ZM0.605347 41V40H-1.12838L-0.260259 41.5007L0.605347 41ZM0.605347 7H9.99996V5H0.605347V7ZM9.99996 7C12.7614 7 15 9.23858 15 12H17C17 8.13401 13.866 5 9.99996 5V7ZM15 12V35H17V12H15ZM15 35C15 37.7614 12.7614 40 9.99996 40V42C13.866 42 17 38.866 17 35H15ZM9.99996 40H0.605347V42H9.99996V40ZM11 46C6.92967 46 3.37441 43.7898 1.47095 40.4993L-0.260259 41.5007C1.98599 45.3838 6.18687 48 11 48V46ZM104 46H11V48H104V46ZM115 35C115 41.0751 110.075 46 104 46V48C111.18 48 117 42.1797 117 35H115ZM115 12V35H117V12H115ZM104 1C110.075 1 115 5.92487 115 12H117C117 4.8203 111.18 -1 104 -1V1ZM11 1H104V-1H11V1ZM1.47095 6.50073C3.37441 3.21021 6.92967 1 11 1V-1C6.18687 -1 1.98599 1.61617 -0.260259 5.49927L1.47095 6.50073Z" fill="url(#paint0_linear_4068_44067)" mask="url(#path-1-inside-1_4068_44067)"/>
<defs>
<linearGradient id="paint0_linear_4068_44067" x1="58.3027" y1="0" x2="58.3027" y2="47" gradientUnits="userSpaceOnUse">
<stop stop-color="#008159" stop-opacity="0.5"/>
<stop offset="1" stop-color="#02BCE6" stop-opacity="0.5"/>
</linearGradient>
</defs>
</svg>
